<!DOCTYPE svg PUBLIC "-//W3C//DTD SVG 20010904//EN" "http://www.w3.org/TR/2001/REC-SVG-20010904/DTD/svg10.dtd">
<svg version="1.0" xmlns="http://www.w3.org/2000/svg" width="1209px" height="1252px" viewBox="0 0 12090 12520" preserveAspectRatio="xMidYMid meet">
<g id="layer101" fill="#004964" stroke="none">
 <path d="M12014 12489 c-16 -17 -72 -67 -124 -112 -52 -45 -122 -106 -156 -136 -87 -80 -257 -229 -314 -276 -46 -38 -194 -167 -320 -280 -31 -27 -118 -104 -194 -170 -77 -66 -187 -163 -246 -215 -59 -52 -153 -135 -210 -185 -57 -49 -144 -126 -193 -170 -50 -44 -112 -98 -138 -120 -71 -59 -222 -191 -303 -265 -40 -36 -134 -119 -211 -185 -76 -66 -180 -156 -229 -200 -50 -45 -107 -94 -127 -110 -20 -17 -76 -66 -126 -110 -49 -44 -136 -120 -193 -170 -57 -49 -148 -131 -204 -180 -56 -50 -115 -101 -133 -115 -17 -14 -72 -61 -121 -105 -49 -44 -135 -120 -192 -170 -173 -151 -294 -257 -365 -320 -68 -60 -173 -152 -367 -320 -56 -49 -131 -115 -164 -145 -34 -30 -119 -104 -189 -165 -69 -60 -159 -139 -199 -175 -40 -36 -132 -117 -205 -180 -74 -63 -164 -142 -202 -176 -37 -34 -94 -83 -126 -110 -32 -26 -83 -71 -113 -99 -30 -27 -120 -106 -199 -175 -80 -69 -190 -165 -245 -215 -55 -49 -115 -101 -132 -115 -18 -14 -75 -63 -126 -109 -51 -45 -137 -122 -192 -170 -54 -47 -142 -124 -195 -171 -53 -47 -110 -97 -127 -110 -17 -14 -72 -61 -121 -105 -49 -44 -138 -123 -198 -175 -60 -52 -153 -133 -206 -180 -53 -47 -156 -137 -229 -200 -73 -63 -162 -142 -199 -175 -77 -71 -251 -223 -320 -280 -27 -22 -86 -74 -132 -115 -46 -42 -103 -91 -126 -110 -41 -34 -204 -177 -313 -275 -31 -27 -118 -104 -194 -170 -76 -66 -186 -163 -246 -215 -59 -52 -153 -135 -210 -185 -57 -49 -146 -128 -199 -175 -53 -47 -110 -97 -127 -110 -17 -14 -72 -61 -121 -105 -49 -44 -138 -123 -198 -175 -60 -52 -152 -133 -205 -180 -54 -47 -160 -139 -235 -205 -76 -66 -164 -143 -194 -171 -31 -27 -87 -77 -126 -109 -38 -33 -97 -84 -131 -115 -33 -30 -118 -104 -188 -165 -70 -60 -160 -139 -199 -175 -40 -36 -135 -119 -212 -185 -76 -66 -182 -158 -236 -205 -53 -47 -126 -111 -163 -143 l-66 -58 0 -550 c0 -476 2 -550 15 -547 8 2 69 50 136 108 67 58 177 151 243 208 143 121 305 260 419 357 124 107 251 213 330 279 39 32 105 88 147 125 42 36 143 122 225 191 81 69 190 161 241 205 51 44 140 121 199 170 58 50 148 126 199 170 51 44 127 109 170 145 137 114 242 202 358 302 172 147 282 240 401 341 60 51 147 126 195 167 48 41 112 95 142 120 30 24 89 74 130 110 41 37 87 75 101 86 15 10 63 51 106 89 44 39 132 113 194 166 63 53 163 139 223 190 59 52 120 103 135 114 14 11 65 53 113 95 130 113 241 208 328 280 43 36 111 94 152 128 40 35 122 105 182 155 59 51 145 124 190 162 44 39 108 93 141 120 33 28 97 82 142 120 44 39 130 111 190 162 59 51 146 125 192 165 47 40 115 98 152 128 37 30 100 84 140 118 41 35 125 107 188 160 63 54 168 143 235 200 67 57 170 145 229 195 60 51 148 126 196 167 47 41 111 95 141 120 30 24 89 74 130 110 41 37 87 75 101 86 15 10 63 51 106 89 44 39 132 113 194 166 63 53 163 139 223 190 59 52 120 103 135 114 14 11 65 53 113 95 130 113 241 208 328 280 43 36 111 94 152 128 40 35 122 105 182 155 59 51 145 124 190 162 44 39 108 93 141 120 33 28 97 82 142 120 44 39 130 111 190 162 59 51 146 125 192 165 47 40 115 98 152 128 37 30 100 84 140 118 41 35 125 107 188 160 63 54 168 143 235 200 67 57 170 145 229 195 60 51 150 128 202 172 149 128 256 219 276 234 19 13 19 -113 19 -5178 l0 -5191 435 0 435 0 0 6241 c0 4282 -3 6246 -10 6260 -15 27 -32 24 -66 -12z"/>
 <path d="M0 10434 c0 -1505 3 -1884 12 -1878 7 4 51 42 98 83 47 42 97 85 112 96 14 11 62 52 106 90 44 39 132 115 197 170 64 55 154 132 199 170 44 39 107 92 138 119 l58 48 0 1494 0 1494 -460 0 -460 0 0 -1886z"/>
 </g>

</svg>